<svg width="56" height="56" viewBox="0 0 56 56" fill="none" xmlns="http://www.w3.org/2000/svg">
<path d="M37.6833 30.3334H11.6666C11.0055 30.3334 10.4513 30.1098 10.0041 29.6626C9.55686 29.2154 9.33325 28.6612 9.33325 28.0001C9.33325 27.339 9.55686 26.7848 10.0041 26.3376C10.4513 25.8904 11.0055 25.6668 11.6666 25.6668H37.6833L31.0333 19.0168C30.5666 18.5501 30.343 18.0057 30.3624 17.3834C30.3819 16.7612 30.6055 16.2168 31.0333 15.7501C31.4999 15.2834 32.0541 15.0404 32.6958 15.0209C33.3374 15.0015 33.8916 15.2251 34.3583 15.6918L45.0333 26.3668C45.2666 26.6001 45.4319 26.8529 45.5291 27.1251C45.6263 27.3973 45.6749 27.689 45.6749 28.0001C45.6749 28.3112 45.6263 28.6029 45.5291 28.8751C45.4319 29.1473 45.2666 29.4001 45.0333 29.6334L34.3583 40.3084C33.8916 40.7751 33.3374 40.9987 32.6958 40.9793C32.0541 40.9598 31.4999 40.7168 31.0333 40.2501C30.6055 39.7834 30.3819 39.239 30.3624 38.6168C30.343 37.9946 30.5666 37.4501 31.0333 36.9834L37.6833 30.3334Z" fill="#E3E3E3"/>
</svg>
