<svg width="42" height="42" viewBox="0 0 42 42" fill="none" xmlns="http://www.w3.org/2000/svg">
<path fill-rule="evenodd" clip-rule="evenodd" d="M30.5495 21.226C30.5495 20.5208 30.4861 19.8425 30.3687 19.1913H21V23.0392H26.3535C26.1229 24.2826 25.422 25.3362 24.3685 26.0415V28.5373H27.5834C29.4643 26.8056 30.5495 24.2556 30.5495 21.226Z" fill="#4285F4"/>
<path fill-rule="evenodd" clip-rule="evenodd" d="M20.9999 30.9474C23.6857 30.9474 25.9374 30.0565 27.5833 28.5374L24.3684 26.0416C23.4777 26.6384 22.3383 26.9911 20.9999 26.9911C18.409 26.9911 16.2161 25.2412 15.4339 22.89H12.1106V25.4673C13.7474 28.7183 17.1114 30.9474 20.9999 30.9474Z" fill="#34A853"/>
<path fill-rule="evenodd" clip-rule="evenodd" d="M15.4341 22.89C15.2352 22.2932 15.1221 21.6557 15.1221 21C15.1221 20.3444 15.2352 19.7069 15.4341 19.11V16.5328H12.1108C11.437 17.8757 11.0527 19.3949 11.0527 21C11.0527 22.6052 11.437 24.1244 12.1108 25.4673L15.4341 22.89Z" fill="#FBBC05"/>
<path fill-rule="evenodd" clip-rule="evenodd" d="M20.9999 15.0089C22.4604 15.0089 23.7716 15.5108 24.8026 16.4966L27.6556 13.6435C25.9329 12.0383 23.6812 11.0526 20.9999 11.0526C17.1114 11.0526 13.7474 13.2817 12.1106 16.5327L15.4339 19.11C16.2161 16.7588 18.409 15.0089 20.9999 15.0089Z" fill="#EA4335"/>
</svg>
