<svg width="466" height="214" viewBox="0 0 466 214" fill="none" xmlns="http://www.w3.org/2000/svg">
<g opacity="0.8">
<path d="M354.084 124.39C356.045 125.433 358.481 124.689 359.524 122.728C360.567 120.767 359.823 118.331 357.862 117.288C355.9 116.245 353.465 116.989 352.422 118.951C351.379 120.912 352.123 123.347 354.084 124.39Z" fill="#FF6584"/>
<path d="M351.16 169.307C353.122 170.35 355.557 169.606 356.6 167.645C357.643 165.684 356.899 163.248 354.938 162.205C352.977 161.162 350.541 161.906 349.498 163.868C348.455 165.829 349.199 168.264 351.16 169.307Z" fill="#268121"/>
<path d="M339.075 63.5358C342.67 65.7481 345.688 68.7807 347.884 72.3851C350.08 75.9894 351.39 80.0628 351.707 84.2713C351.791 85.4606 351.999 86.8279 351.027 87.7222C350.668 88.0719 350.201 88.2895 349.703 88.3395C349.204 88.3895 348.704 88.2689 348.283 87.9974C347.794 87.5879 347.454 87.0285 347.315 86.4059C347.176 85.7834 347.247 85.1325 347.516 84.5541C347.785 83.9758 348.237 83.5023 348.802 83.2072C349.368 82.912 350.015 82.8117 350.643 82.9217C353.807 83.1932 355.503 86.2764 356.884 88.7514C360.026 94.3889 363.804 99.9853 369.414 103.421C374.607 106.6 381.481 107.557 386.941 104.491C387.895 103.958 387 102.513 386.05 103.047C380.634 106.09 373.769 104.562 368.944 101.081C366.103 98.9425 363.65 96.3334 361.69 93.3669C360.654 91.8637 359.705 90.3036 358.806 88.7159C357.992 87.1257 357.039 85.6109 355.958 84.1892C354.091 81.9379 350.886 80.3308 348.018 81.7041C345.34 82.9839 344.677 87.1318 346.966 89.1094C347.477 89.5251 348.084 89.8075 348.731 89.9313C349.378 90.055 350.046 90.0164 350.675 89.8187C351.303 89.6211 351.873 89.2706 352.333 88.7987C352.793 88.3268 353.129 87.7482 353.31 87.1147C353.711 85.7356 353.422 84.0242 353.238 82.625C352.691 78.4124 351.207 74.3762 348.893 70.8134C346.58 67.2505 343.497 64.2519 339.872 62.0382C338.933 61.4781 338.138 62.9782 339.075 63.5358Z" fill="#CCCCCC"/>
<path d="M454.734 57.0884C451.875 55.3292 449.474 52.9175 447.728 50.0512C445.981 47.1849 444.939 43.9455 444.686 40.5986C444.62 39.6522 444.455 38.5639 445.227 37.854C445.512 37.5758 445.883 37.4027 446.28 37.3629C446.676 37.3231 447.075 37.4189 447.41 37.6348C447.796 37.9613 448.065 38.4061 448.174 38.9004C448.284 39.3948 448.227 39.9114 448.014 40.3705C447.8 40.8295 447.441 41.2056 446.993 41.4408C446.545 41.6759 446.031 41.7569 445.532 41.6715C443.017 41.4542 441.668 39.0038 440.568 37.0349C438.069 32.551 435.065 28.1 430.601 25.3663C426.473 22.8381 421.003 22.0757 416.66 24.5144C415.9 24.941 416.612 26.0899 417.369 25.6632C421.676 23.2444 427.137 24.4546 430.974 27.2259C433.233 28.9271 435.185 31.0025 436.744 33.3621C437.567 34.5574 438.322 35.7987 439.037 37.0633C439.684 38.3281 440.442 39.5329 441.302 40.6636C442.786 42.4547 445.334 43.731 447.615 42.6392C448.123 42.3632 448.56 41.9721 448.89 41.4973C449.22 41.0224 449.434 40.4769 449.515 39.9044C449.597 39.3319 449.543 38.7484 449.358 38.2004C449.174 37.6524 448.864 37.1552 448.452 36.7486C448.046 36.4179 447.563 36.1932 447.049 36.0947C446.534 35.9961 446.003 36.0268 445.503 36.184C445.003 36.3411 444.549 36.6198 444.184 36.9952C443.818 37.3705 443.551 37.8307 443.406 38.3346C443.193 39.5173 443.213 40.7302 443.464 41.9055C443.899 45.2567 445.08 48.4675 446.921 51.3016C448.762 54.1356 451.215 56.5206 454.099 58.2808C454.846 58.7268 455.479 57.5327 454.734 57.0884Z" fill="#CCCCCC"/>
<path d="M437.366 96.2959L433.814 94.4072L427.609 106.076L431.16 107.964L437.366 96.2959Z" fill="#CCCCCC"/>
<path d="M384.263 57.616L388.046 56.459L384.244 44.0304L380.462 45.1874L384.263 57.616Z" fill="#B3B3B3"/>
<path d="M316.583 182.478L317.74 186.26L330.169 182.459L329.012 178.676L316.583 182.478Z" fill="#FF6584"/>
<path d="M217.534 183.91C253.823 183.91 283.242 154.492 283.242 118.202C283.242 81.9128 253.823 52.4945 217.534 52.4945C181.245 52.4945 151.826 81.9128 151.826 118.202C151.826 154.492 181.245 183.91 217.534 183.91Z" fill="#268121"/>
<path d="M211.019 143.268C209.541 143.27 208.102 142.792 206.919 141.905L206.849 141.85L191.406 130.037C189.977 128.925 189.045 127.292 188.815 125.496C188.584 123.699 189.073 121.884 190.175 120.446C191.277 119.009 192.903 118.065 194.698 117.821C196.493 117.578 198.311 118.054 199.757 119.145L209.759 126.816L233.395 95.9802C233.943 95.2648 234.626 94.6644 235.406 94.2132C236.186 93.7621 237.047 93.469 237.94 93.3508C238.833 93.2327 239.741 93.2917 240.611 93.5246C241.481 93.7574 242.297 94.1595 243.012 94.7078L242.866 94.9114L243.016 94.7078C244.459 95.8158 245.404 97.4509 245.642 99.2543C245.881 101.058 245.394 102.882 244.289 104.327L216.488 140.58C215.844 141.416 215.018 142.092 214.071 142.556C213.124 143.02 212.084 143.26 211.03 143.257L211.019 143.268Z" fill="white"/>
<path d="M173.634 69.2316C173.001 69.2295 172.395 68.977 171.947 68.5291C171.499 68.0812 171.247 67.4743 171.245 66.8411C171.243 66.653 171.264 66.4654 171.308 66.2827L183.678 11.7924C183.772 11.3819 183.972 11.0032 184.258 10.6943C184.544 10.3854 184.906 10.1571 185.308 10.0322C185.71 9.9074 186.138 9.89042 186.549 9.98298C186.96 10.0756 187.339 10.2744 187.649 10.5597L228.662 48.5363C228.971 48.8224 229.199 49.1845 229.323 49.5864C229.448 49.9883 229.465 50.4159 229.373 50.8265C229.281 51.2371 229.082 51.6162 228.797 51.9259C228.512 52.2356 228.151 52.4651 227.749 52.5914L174.355 69.1242C174.122 69.1955 173.879 69.2317 173.634 69.2316Z" fill="#3F3D56"/>
<path d="M207.179 29.3976L181.417 24.2709L181.823 22.4819L204.601 27.0099L207.179 29.3976Z" fill="white"/>
<path d="M227.465 48.1887L178.209 38.3878L178.615 36.5896L224.882 45.7911L227.465 48.1887Z" fill="white"/>
<path d="M209.843 57.5569L206.146 58.6998L175.009 52.5037L175.414 50.7056L209.843 57.5569Z" fill="white"/>
<path d="M78.4449 148.931C81.3637 148.203 83.14 145.247 82.4122 142.328C81.6845 139.409 78.7283 137.633 75.8095 138.361C72.8906 139.089 71.1144 142.045 71.8421 144.964C72.5699 147.882 75.526 149.659 78.4449 148.931Z" fill="#268121"/>
<path d="M30.0156 19.8585C32.1004 19.3387 33.369 17.2273 32.8492 15.1425C32.3294 13.0577 30.218 11.789 28.1332 12.3088C26.0485 12.8286 24.7798 14.9401 25.2996 17.0248C25.8194 19.1096 27.9308 20.3783 30.0156 19.8585Z" fill="#FF6584"/>
<path d="M52.4189 121.739C54.5037 121.219 55.7724 119.108 55.2526 117.023C54.7328 114.938 52.6213 113.669 50.5366 114.189C48.4518 114.709 47.1831 116.82 47.7029 118.905C48.2227 120.99 50.3341 122.259 52.4189 121.739Z" fill="#268121"/>
<path d="M72.3837 182.519C74.4685 181.999 75.7372 179.887 75.2174 177.803C74.6976 175.718 72.5862 174.449 70.5014 174.969C68.4166 175.489 67.1479 177.6 67.6677 179.685C68.1875 181.77 70.299 183.038 72.3837 182.519Z" fill="#E6E6E6"/>
<path d="M5.65718 56.4128C7.74197 55.893 9.01064 53.7816 8.49085 51.6968C7.97105 49.612 5.85962 48.3434 3.77484 48.8631C1.69005 49.3829 0.421377 51.4944 0.941173 53.5792C1.46097 55.6639 3.5724 56.9326 5.65718 56.4128Z" fill="#CCCCCC"/>
<path d="M108.609 126.051C105.535 125.006 102.752 123.248 100.489 120.92C98.2265 118.592 96.5474 115.761 95.5898 112.659C95.3229 111.779 94.9344 110.79 95.5099 109.955C95.7192 109.631 96.0321 109.388 96.3974 109.266C96.7627 109.143 97.1588 109.148 97.521 109.279C97.956 109.504 98.305 109.866 98.5142 110.309C98.7233 110.751 98.781 111.251 98.6784 111.729C98.5758 112.208 98.3185 112.64 97.9462 112.958C97.574 113.276 97.1075 113.463 96.6185 113.49C94.1989 113.827 92.3984 111.804 90.9413 110.184C87.6178 106.496 83.8299 102.941 79.0329 101.322C74.593 99.8241 69.2736 100.282 65.7023 103.515C65.0778 104.081 65.9961 105.009 66.6199 104.446C70.1613 101.239 75.5745 101.21 79.7861 102.996C82.2824 104.115 84.5688 105.652 86.5462 107.542C87.58 108.492 88.5584 109.501 89.5048 110.538C90.387 111.592 91.361 112.565 92.4154 113.447C94.2007 114.816 96.877 115.473 98.7956 113.953C99.2152 113.584 99.5426 113.121 99.7515 112.602C99.9604 112.084 100.045 111.523 99.9988 110.966C99.9524 110.409 99.7763 109.87 99.4846 109.393C99.1929 108.916 98.7936 108.514 98.3187 108.219C97.8641 107.994 97.3608 107.885 96.8539 107.903C96.3471 107.921 95.8525 108.064 95.4145 108.319C94.9765 108.575 94.6088 108.935 94.3444 109.368C94.0799 109.801 93.9269 110.292 93.8991 110.799C93.9521 111.96 94.2311 113.1 94.7204 114.154C95.8513 117.221 97.6559 119.995 100.001 122.273C102.347 124.55 105.173 126.272 108.272 127.311C109.072 127.572 109.412 126.31 108.614 126.051L108.609 126.051Z" fill="#CCCCCC"/>
<path d="M14.6099 99.5927L17.8877 101.562L24.3586 90.7928L21.0808 88.8233L14.6099 99.5927Z" fill="#B3B3B3"/>
<path d="M14.1236 190.425C17.0424 189.697 18.8187 186.741 18.0909 183.822C17.3632 180.903 14.407 179.127 11.4882 179.855C8.56932 180.583 6.79308 183.539 7.52083 186.458C8.24859 189.376 11.2047 191.153 14.1236 190.425Z" fill="#268121"/>
</g>
</svg>
